<?xml version="1.0" encoding="UTF-8"?>
<svg id="Ebene_3" data-name="Ebene 3" xmlns="http://www.w3.org/2000/svg" viewBox="0 0 1500 1000">
  <defs>
    <style>
      .cls-1 {
        fill: #e30f13;
      }

      .cls-1, .cls-2, .cls-3 {
        stroke-width: 0px;
      }

      .cls-2 {
        fill: #004b93;
      }

      .cls-3 {
        fill: #6f6f6e;
      }
    </style>
  </defs>
  <path class="cls-1" d="m100,499.25c0,52.91,42.9,95.81,95.81,95.81s95.82-42.9,95.82-95.81-42.9-95.81-95.82-95.81-95.81,42.9-95.81,95.81Z"/>
  <g>
    <path class="cls-2" d="m414.67,545.62h-.43c-5.43,8.26-18.04,18.25-37.81,18.25-33.47,0-47.59-29.77-47.59-59.98s15.65-56.07,47.81-56.07c19.34,0,30.42,7.6,36.72,17.82h.43v-67.37h20.43v162.99h-19.56v-15.65Zm-33.47,1.74c23.03,0,32.6-22.82,32.6-41.29,0-20.64-10.65-41.72-32.81-41.72s-30.86,20.86-30.42,41.07c-.44,17.39,8.69,41.94,30.64,41.94Z"/>
    <path class="cls-2" d="m556.15,556.71c-7.82,2.82-16.73,7.17-34.99,7.17-39.34,0-57.37-23.9-57.37-59.98,0-32.81,20.64-56.07,51.94-56.07,36.94,0,48.9,26.94,48.9,62.59h-79.1c0,21.95,17.17,36.94,36.51,36.94,13.47,0,29.12-6.95,34.12-11.08v20.43Zm-13.26-61.5c0-16.95-10-30.86-27.6-30.86-19.99,0-28.25,16.52-29.77,30.86h57.37Z"/>
    <path class="cls-2" d="m594.18,450.44h19.12v17.17h.43c5.43-11.52,17.17-19.77,28.9-19.77,6.08,0,9.13.65,13.47,1.52v18.25c-3.69-1.52-7.82-1.96-11.3-1.96-18.25,0-30.2,17.39-30.2,45.2v50.42h-20.43v-110.83Z"/>
    <path class="cls-2" d="m680.68,450.44h19.12v16.08h.43c7.82-12.82,18.91-18.69,35.21-18.69,12.82,0,25.64,6.52,31.51,21.51,7.61-15.86,24.34-21.51,34.33-21.51,28.25,0,38.47,18.25,38.47,42.37v71.06h-20.43v-66.06c0-13.69-3.26-30.86-19.78-30.86-20.86,0-29.12,20.43-29.12,41.07v55.85h-20.43v-66.06c0-13.69-3.26-30.86-19.78-30.86-20.86,0-29.12,20.43-29.12,41.07v55.85h-20.43v-110.83Z"/>
    <path class="cls-2" d="m881.49,458.26c10.21-6.09,22.38-10.43,36.51-10.43,31.73,0,44.55,15.65,44.55,45.85v45.85c0,12.61.43,18.47.87,21.73h-19.12v-14.34h-.43c-4.78,6.73-15.65,16.95-34.34,16.95-23.9,0-40.64-10.43-40.64-34.55,0-27.82,30.43-36.51,51.5-36.51,8.04,0,13.69,0,21.73.44,0-19.12-6.95-28.9-27.38-28.9-11.52,0-23.91,4.35-32.16,11.3l-1.09-17.38Zm60.63,50.2c-4.34,0-8.69-.43-13.04-.43-11.08,0-38.46,1.74-38.46,21.3,0,11.74,11.3,18.04,20.65,18.04,20.21,0,30.86-12.6,30.86-29.12v-9.78Z"/>
    <path class="cls-1" d="m1058.17,466.96h-29.33v60.63c0,12.82,7.82,19.78,17.17,19.78,6.3,0,10.86-1.96,13.91-3.91v17.39c-4.57,1.3-10.87,3.04-17.39,3.04-21.08,0-34.12-10-34.12-32.16v-64.76h-24.99v-16.52h24.99v-25.64l20.43-6.52v32.16h29.33v16.52Z"/>
    <path class="cls-1" d="m1170.96,556.71c-7.82,2.82-16.74,7.17-34.99,7.17-39.34,0-57.38-23.9-57.38-59.98,0-32.81,20.65-56.07,51.94-56.07,36.95,0,48.89,26.94,48.89,62.59h-79.1c0,21.95,17.17,36.94,36.5,36.94,13.47,0,29.13-6.95,34.12-11.08v20.43Zm-13.26-61.5c0-16.95-10-30.86-27.6-30.86-19.99,0-28.25,16.52-29.77,30.86h57.37Z"/>
    <path class="cls-1" d="m1200.74,539.54c8.05,5.22,19.56,7.82,25.43,7.82,9.34,0,20.86-3.91,20.86-15.86,0-20.21-48.03-18.47-48.03-49.55,0-23.04,17.17-34.12,39.11-34.12,9.56,0,17.39,1.96,25.42,4.34l-1.73,17.82c-4.56-2.82-16.74-5.65-21.51-5.65-10.43,0-19.56,4.35-19.56,13.47,0,22.6,48.03,16.08,48.03,51.5,0,23.69-18.9,34.55-38.68,34.55-10.43,0-21.08-1.09-30.43-6.08l1.08-18.25Z"/>
    <path class="cls-1" d="m1354.6,466.96h-29.34v60.63c0,12.82,7.83,19.78,17.17,19.78,6.3,0,10.86-1.96,13.91-3.91v17.39c-4.56,1.3-10.86,3.04-17.38,3.04-21.08,0-34.12-10-34.12-32.16v-64.76h-24.99v-16.52h24.99v-25.64l20.43-6.52v32.16h29.34v16.52Z"/>
  </g>
  <path class="cls-2" d="m1356.6,416.84c0-11.96,9.74-21.7,21.7-21.7s21.7,9.74,21.7,21.7-9.74,21.7-21.7,21.7-21.7-9.74-21.7-21.7Zm38.11,0c0-10.16-7.33-17.49-16.41-17.49s-16.41,7.33-16.41,17.49,7.33,17.49,16.41,17.49,16.41-7.33,16.41-17.49Zm-24.76-12.38h9.13c5.9,0,9.08,2.04,9.08,7.21,0,4.21-2.4,6.25-6.43,6.61l6.61,10.76h-4.69l-6.37-10.58h-2.77v10.58h-4.56v-24.59Zm4.56,10.52h4.03c2.71,0,5.05-.36,5.05-3.67,0-2.89-2.64-3.37-4.99-3.37h-4.09v7.03Z"/>
  <g>
    <path class="cls-3" d="m462.8,659.17c-6.15,0-6.67,9.33-8.42,9.33-.45,0-.71-.13-.71-.71,0-.39.45-2.2,2.2-7.51,1.62-4.92,1.75-5.38,2.46-5.38,1.56,0,0,2.85,2.14,2.85h18.33c2.66,0,2.07-2.46,3.5-2.46.32,0,.52.26.52.52,0,.52-.45,1.49-1.81,6.67-1.36,5.31-1.88,6.28-2.46,6.28s-.71-.32-.71-.71c0-.91.84-4.21.84-5.96,0-2.33-.45-2.92-4.86-2.92h-2.33l-10.36,34.39c-.19.58-.33,1.23-.33,1.88,0,.91.71,1.3,2.01,1.55,1.1.19,1.36.33,1.36.71,0,.65-.45.84-1.3.84-.97,0-1.16-.26-5.24-.26-3.43,0-4.28.26-4.86.26s-.91-.13-.91-.58c0-.58.39-.84,1.04-.97,3.11-.65,3.17-.71,4.21-4.15l10.23-33.68h-4.53Z"/>
    <path class="cls-3" d="m500.48,688.32c-1.23,3.76-1.36,4.73-1.36,5.44s.33.91.71.91c.58,0,1.81-1.23,4.02-4.6,1.62-2.46,1.36-3.17,2.01-3.17.32,0,.45.19.45.52,0,1.82-5.9,11.66-10.11,11.66-1.49,0-1.75-1.04-1.75-2.33,0-2.33,1.23-5.44,3.82-13.15l-.13-.13c-2.33,3.56-10.1,15.61-15.22,15.61-2.98,0-4.01-2.33-4.01-5.76,0-11.33,11.79-24.68,19.56-24.68,1.62,0,2.91.58,4.27,1.56l.65-1.56c.19-.52.32-.65,1.1-.65h1.88c.39,0,.65.07.65.45,0,.19-.13.65-.26.97l-6.28,18.91Zm-15.42,7.25c4.79,0,16.52-18.33,16.52-22.73,0-2.01-1.17-3.04-2.98-3.04-6.54,0-15.54,16.06-15.54,22.93,0,1.68.58,2.85,2.01,2.85Z"/>
    <path class="cls-3" d="m524.36,680.35l.13.13c1.88-3.24,6.99-12.24,11.66-12.24,2.72,0,4.01,2.46,4.01,5.96,0,5.25-5.12,11.34-13.86,11.85v.13c4.66,2.59,3.37,11.08,6.74,11.08,1.42,0,2.07-1.62,2.07-2.59,0-2.07-1.94-2.2-1.94-4.21,0-1.17.71-2.01,1.68-2.01,1.36,0,1.81,1.42,1.81,3.56,0,2.91-1.29,6.8-5.18,6.8-7.06,0-5.57-11.92-8.35-11.92-.78,0-.91.45-3.69,10.62-.13.52-.13.78-.84.78h-2.91c-.26,0-.39-.13-.39-.32,0-.84.45-1.62,7.58-25.71,2.91-9.85,4.08-12.57,4.08-14.51,0-.84-.26-1.43-1.75-1.56-1.23-.13-1.49-.32-1.49-.84.07-.45.84-.71,1.94-.71,4.41,0,6.28-2.2,6.8-2.2.32,0,.45.13.45.52,0,.32-.39,1.04-1.43,4.34l-7.12,23.06Zm6.87,2.27c2.78-2.2,4.79-5.77,4.79-8.68,0-1.56-.65-2.59-1.75-2.59-3.17,0-10.3,10.75-10.95,13.99,2.85-.13,5.83-1.1,7.9-2.72Z"/>
    <path class="cls-3" d="m555.17,691.23c-.52,1.56-.71,2.27-.71,2.91,0,.45.26.78.78.78.84,0,1.88-1.04,4.34-5.12,1.1-1.81,1.1-2.72,1.75-2.72.33,0,.52.19.52.45,0,1.23-5.25,11.27-9.52,11.27-1.42,0-2.01-1.36-2.01-2.72,0-1.49.65-3.5,1.56-6.09l4.34-12.11c1.17-3.11,1.49-4.27,1.49-5.18,0-.52-.19-.84-.71-.84-.65,0-1.36.52-2.98,2.66-2.91,3.82-2.53,4.79-3.37,4.79-.26,0-.45-.07-.45-.39,0-.84,1.3-3.24,3.17-5.83,2.33-3.17,4.41-5.12,6.41-5.12,1.3,0,2.07.91,2.07,2.59,0,1.04-.45,3.17-1.23,5.44l-5.44,15.22Zm8.29-34.52c1.04,0,1.62,1.04,1.62,2.27,0,2.14-1.55,4.34-3.17,4.34-1.04,0-1.62-1.04-1.62-2.27,0-2.14,1.56-4.34,3.17-4.34Z"/>
    <path class="cls-3" d="m572.13,698.29l3.89-11.21c2.66-7.71,4.21-12.76,4.21-14.25,0-.84-.26-1.36-1.04-1.36-1.04,0-2.46,1.36-4.47,4.21-2.07,2.91-1.81,3.3-2.46,3.3-.32,0-.45-.13-.45-.45,0-1.23,5.7-10.56,9.91-10.56,1.88,0,2.66,1.3,2.66,3.05,0,3.3-2.4,8.87-2.98,11.79l.13.13c2.27-4.53,9.46-14.96,15.55-14.96,2.01,0,3.37,1.36,3.37,3.56,0,2.59-.78,3.95-4.47,13.47-2.91,7.58-3.04,8.36-3.04,9.26,0,.71.32,1.04.78,1.04.97,0,2.14-.91,3.89-3.17,2.79-3.56,2.66-4.73,3.24-4.73.32,0,.45.26.45.58,0,1.42-5.96,10.82-9.84,10.82-2.01,0-2.66-1.43-2.66-3.05,0-2.01.97-5.5,2.53-9.39,3.89-9.72,4.99-12.18,4.99-14.12,0-1.23-.58-1.82-1.43-1.82-2.91,0-8.16,5.51-13.15,14.45-1.81,3.24-4.73,9.91-5.38,11.98-.39,1.23-.45,1.42-1.17,1.42h-3.04Z"/>
    <path class="cls-3" d="m637.98,671.74l-5.12.26c.71,1.75,1.16,3.56,1.16,5.5,0,5.57-4.15,11.4-10.17,11.4-2.2,0-3.95-.65-5.38-1.68-.84.33-1.88,1.49-1.88,2.4,0,4.66,15.29,3.43,15.29,13.08,0,3.89-4.01,9.46-12.44,9.46-6.15,0-11.53-2.98-11.53-8.68,0-4.99,5.76-6.87,9.85-7.64v-.13c-1.82-.91-3.37-2.33-3.37-4.53s1.23-3.82,3.3-4.92c-1.23-1.62-2.07-3.69-2.07-7.13,0-5.63,4.21-11.14,10.43-11.14,2.27,0,4.15,1.04,5.05,1.68h7.19l-.32,2.07Zm-9.59,32.51c0-5.05-5.96-6.35-9.59-7.97-3.69,1.16-7.38,3.11-7.38,7.71,0,4.34,4.34,7,8.29,7s8.68-2.14,8.68-6.74Zm-2.27-35.1c-3.95,0-6.99,6.35-6.99,12.76,0,4.41,1.75,5.83,4.08,5.83,4.28,0,7.32-8.1,7.32-12.76,0-4.01-1.75-5.83-4.41-5.83Z"/>
    <path class="cls-3" d="m678.63,695.64c1.94-2.85,9.84-13.08,9.84-19.24,0-1.49-1.3-3.63-1.3-5.31s.84-2.85,2.07-2.85c1.68,0,2.2,1.56,2.2,4.02,0,5.57-3.63,13.21-15.74,29.21-1.68,2.27-3.11,4.15-4.34,5.57-3.43,4.01-5.57,5.12-7.97,5.12s-3.43-1.88-3.43-4.15c0-1.23.84-2.59,2.14-2.59,1.17,0,1.62.71,2.01,3.04.13.91.84,1.23,1.49,1.23,1.81,0,3.63-2.07,4.66-3.17,2.07-2.2,4.02-6.35,4.53-10.04.33-2.46.45-5.7.45-10.56,0-13.21-.65-14.57-2.07-14.57-1.04,0-1.81,1.17-3.04,3.43-1.36,2.4-1.43,4.02-2.27,4.02-.39,0-.58-.19-.58-.78,0-.78,3.76-9.78,7.39-9.78,2.85,0,4.08,2.98,4.08,11.14,0,7.13-.07,10.95-.32,16.13l.19.13Z"/>
    <path class="cls-3" d="m714.55,667.98c5.05,0,8.03,4.4,8.03,11.4,0,9.2-6.61,19.95-14.45,19.95-5.05,0-8.03-4.34-8.03-11.33,0-9.26,6.61-20.02,14.44-20.02Zm-6.41,29.79c5.25,0,10.95-12.69,10.95-20.73,0-5.18-1.68-7.51-4.53-7.51-5.24,0-10.95,12.76-10.95,20.79,0,5.18,1.68,7.45,4.53,7.45Z"/>
    <path class="cls-3" d="m753.21,684.3c-3.76,5.57-10.95,14.51-15.93,14.51-1.75,0-2.79-1.1-2.79-3.05,0-5.12,8.03-20.79,8.03-23.19,0-.45-.13-.84-.65-.84-1.1,0-2.72,1.81-4.15,3.76-2.2,3.04-2.66,4.21-3.11,4.21-.39,0-.58-.19-.58-.52,0-.78,6.15-10.95,10.23-10.95,1.62,0,2.4.78,2.4,2.85,0,3.5-8.03,19.95-8.03,22.93,0,.97.58,1.29,1.3,1.29,3.11,0,13.47-9.33,18.59-25.26.26-.91.45-1.04,2.14-1.04,1.55,0,1.81.19,1.81.65,0,.78-8.36,21.89-8.36,24.68,0,.58.33.97.71.97.65,0,1.94-.91,4.27-3.95,2.14-2.78,2.2-3.82,2.79-3.82.32,0,.58.13.58.58,0,1.04-6.02,10.69-10.49,10.69-1.36,0-2.01-1.1-2.01-2.27,0-2.66,1.49-6.73,3.37-12.11l-.13-.13Z"/>
    <path class="cls-3" d="m773.65,698.29c1.55-5.96,6.41-23.45,6.41-25.2,0-.58-.07-.97-.58-.97-.84,0-2.07,1.3-3.43,3.5-1.81,2.98-1.23,3.69-2.27,3.69-.32,0-.58-.2-.58-.58,0-.91,4.47-10.1,8.42-10.1,1.68,0,2.59.97,2.59,2.79,0,1.36-.78,4.15-2.66,11.53l.13.13c4.92-11.07,8.42-14.83,11.08-14.83,1.55,0,2.2,1.3,2.2,3.3,0,3.76-2.14,6.15-3.69,6.15-.91,0-1.49-.39-1.49-1.55,0-1.49,1.04-2.01,1.04-3.37,0-.58-.19-1.04-.78-1.04-1.3,0-6.93,9.07-11.92,24.48-.58,1.81-.78,2.07-1.3,2.07h-3.17Z"/>
    <path class="cls-3" d="m827.64,677.44c0-4.73,3.5-9.46,8.48-9.46,3.24,0,6.28,1.49,6.28,2.27,0,1.23-.32,2.59-.71,4.21-.78,2.98-.84,3.3-1.49,3.3-.91,0-.65-.39-.91-2.66-.45-3.82-1.62-5.57-4.15-5.57s-4.4,2.2-4.4,4.79c0,5.31,7.38,9.2,7.38,15.41,0,5.44-4.6,9.33-9.65,9.33-3.11,0-6.54-1.94-6.54-2.98s.39-3.37,1.04-6.28c.45-2.14.52-2.53,1.17-2.53.58,0,.65.39.65,2.33,0,4.15,1.3,7.9,5.31,7.9,2.53,0,4.53-2.66,4.53-5.12,0-6.35-6.99-8.74-6.99-14.96Z"/>
    <path class="cls-3" d="m870.57,684.3c-3.76,5.57-10.95,14.51-15.94,14.51-1.75,0-2.79-1.1-2.79-3.05,0-5.12,8.03-20.79,8.03-23.19,0-.45-.13-.84-.64-.84-1.1,0-2.72,1.81-4.15,3.76-2.2,3.04-2.66,4.21-3.12,4.21-.39,0-.58-.19-.58-.52,0-.78,6.15-10.95,10.23-10.95,1.62,0,2.39.78,2.39,2.85,0,3.5-8.03,19.95-8.03,22.93,0,.97.58,1.29,1.3,1.29,3.11,0,13.47-9.33,18.59-25.26.26-.91.45-1.04,2.14-1.04,1.55,0,1.81.19,1.81.65,0,.78-8.35,21.89-8.35,24.68,0,.58.33.97.71.97.65,0,1.94-.91,4.27-3.95,2.14-2.78,2.2-3.82,2.79-3.82.32,0,.58.13.58.58,0,1.04-6.02,10.69-10.49,10.69-1.36,0-2.01-1.1-2.01-2.27,0-2.66,1.49-6.73,3.37-12.11l-.13-.13Z"/>
    <path class="cls-3" d="m906.69,667.98c3.5,0,5.45,1.68,5.45,4.28,0,1.49-1.17,2.72-2.92,2.72-1.16,0-2.14-.78-2.39-3.37-.14-1.17-.26-2.07-1.63-2.07-3.76,0-10.49,8.03-10.49,19.37,0,4.34,2.01,7.06,5.18,7.06,2.47,0,5.18-2.66,7-5.5,2.07-3.24,1.82-3.82,2.39-3.89.33,0,.59.13.59.65,0,.78-.98,3.63-3.37,6.74-2.14,2.79-5.12,5.12-8.62,5.12-4.41,0-7.32-3.43-7.32-10.23,0-11.53,8.48-20.86,16.13-20.86Z"/>
    <path class="cls-3" d="m936.02,667.98c3.5,0,5.44,1.68,5.44,4.28,0,1.49-1.17,2.72-2.92,2.72-1.16,0-2.14-.78-2.39-3.37-.13-1.17-.26-2.07-1.62-2.07-3.75,0-10.49,8.03-10.49,19.37,0,4.34,2,7.06,5.18,7.06,2.46,0,5.18-2.66,6.99-5.5,2.07-3.24,1.82-3.82,2.4-3.89.32,0,.58.13.58.65,0,.78-.97,3.63-3.37,6.74-2.14,2.79-5.12,5.12-8.62,5.12-4.4,0-7.32-3.43-7.32-10.23,0-11.53,8.48-20.86,16.13-20.86Z"/>
    <path class="cls-3" d="m953.88,685.6c-.33,1.3-.51,2.66-.51,4.14,0,4.15,1.42,6.22,3.88,6.22s5.37-1.94,8.23-5.76c1.49-2.01,1.43-2.66,1.94-2.66.26,0,.52.19.52.58,0,.65-1.81,4.02-4.53,6.87-2.01,2.14-5.12,4.08-7.9,4.08-4.01,0-6.28-3.04-6.28-9.52,0-11.85,9.26-21.57,15.99-21.57,4.02,0,5.51,2.98,5.51,5.44,0,6.74-4.86,10.88-16.84,12.18Zm.26-1.29c12.82-2.01,13.08-10.43,13.08-12.44,0-1.56-.78-2.72-2.33-2.72-3.36,0-8.74,5.18-10.75,15.16Z"/>
    <path class="cls-3" d="m981.52,677.44c0-4.73,3.5-9.46,8.48-9.46,3.24,0,6.28,1.49,6.28,2.27,0,1.23-.33,2.59-.71,4.21-.78,2.98-.84,3.3-1.49,3.3-.9,0-.65-.39-.9-2.66-.45-3.82-1.62-5.57-4.15-5.57s-4.41,2.2-4.41,4.79c0,5.31,7.39,9.2,7.39,15.41,0,5.44-4.6,9.33-9.65,9.33-3.11,0-6.54-1.94-6.54-2.98s.39-3.37,1.03-6.28c.46-2.14.52-2.53,1.17-2.53.58,0,.64.39.64,2.33,0,4.15,1.3,7.9,5.32,7.9,2.52,0,4.53-2.66,4.53-5.12,0-6.35-6.99-8.74-6.99-14.96Z"/>
    <path class="cls-3" d="m1007.29,677.44c0-4.73,3.5-9.46,8.48-9.46,3.24,0,6.28,1.49,6.28,2.27,0,1.23-.33,2.59-.71,4.21-.78,2.98-.84,3.3-1.49,3.3-.9,0-.65-.39-.9-2.66-.45-3.82-1.62-5.57-4.15-5.57s-4.41,2.2-4.41,4.79c0,5.31,7.39,9.2,7.39,15.41,0,5.44-4.6,9.33-9.65,9.33-3.11,0-6.54-1.94-6.54-2.98s.39-3.37,1.03-6.28c.46-2.14.52-2.53,1.17-2.53.58,0,.64.39.64,2.33,0,4.15,1.3,7.9,5.31,7.9,2.52,0,4.53-2.66,4.53-5.12,0-6.35-6.99-8.74-6.99-14.96Z"/>
    <path class="cls-3" d="m1057.97,670.83c-3.24,1.23-4.21,2.07-4.99,2.07-.25,0-.39-.19-.39-.39,0-.71,3.24-2.2,5.7-3.11l2.2-7.06c.13-.45.33-.52,2.08-.52,1.49,0,1.62,0,1.62.32s-1.1,4.08-1.62,6.22c.78-.19,1.29-.26,1.94-.32.58-.07,1.29-.07,2.27-.07,5.05,0,8.55,2.72,8.55,8.55,0,10.36-8.29,22.15-16.64,22.15-1.49,0-3.24-.52-4.6-1.94-1.55,5.38-3.04,11.01-3.04,11.85,0,1.17.59,1.56,1.55,1.75,1.43.32,2.98.26,2.98,1.04,0,.32-.06.52-.84.52-1.68,0-4.21-.26-6.29-.26-4.33,0-4.85.26-6.21.26-.52,0-.65-.13-.65-.45,0-.58.26-.84,3.04-1.1,1.36-.13,1.81-1.23,2.85-4.66l10.49-34.85Zm7.77-1.29c-1.75,0-3.04.26-3.76.45-5.89,19.95-6.74,22.15-6.74,24.35s1.56,3.17,3.37,3.17c6.35,0,12.57-12.05,12.57-22.28,0-4.4-2.07-5.7-5.44-5.7Z"/>
    <path class="cls-3" d="m1089.82,685.6c-.33,1.3-.52,2.66-.52,4.14,0,4.15,1.42,6.22,3.89,6.22s5.37-1.94,8.23-5.76c1.49-2.01,1.42-2.66,1.94-2.66.26,0,.52.19.52.58,0,.65-1.82,4.02-4.53,6.87-2,2.14-5.12,4.08-7.9,4.08-4.01,0-6.28-3.04-6.28-9.52,0-11.85,9.26-21.57,16-21.57,4.01,0,5.5,2.98,5.5,5.44,0,6.74-4.85,10.88-16.84,12.18Zm.26-1.29c12.82-2.01,13.08-10.43,13.08-12.44,0-1.56-.78-2.72-2.33-2.72-3.37,0-8.74,5.18-10.75,15.16Z"/>
    <path class="cls-3" d="m1114.94,698.29c1.55-5.96,6.41-23.45,6.41-25.2,0-.58-.06-.97-.58-.97-.84,0-2.07,1.3-3.44,3.5-1.81,2.98-1.23,3.69-2.27,3.69-.32,0-.58-.2-.58-.58,0-.91,4.47-10.1,8.42-10.1,1.68,0,2.59.97,2.59,2.79,0,1.36-.78,4.15-2.66,11.53l.13.13c4.92-11.07,8.42-14.83,11.08-14.83,1.55,0,2.2,1.3,2.2,3.3,0,3.76-2.14,6.15-3.69,6.15-.91,0-1.49-.39-1.49-1.55,0-1.49,1.03-2.01,1.03-3.37,0-.58-.19-1.04-.78-1.04-1.3,0-6.93,9.07-11.92,24.48-.59,1.81-.78,2.07-1.3,2.07h-3.17Z"/>
    <path class="cls-3" d="m1146.79,677.44c0-4.73,3.5-9.46,8.48-9.46,3.24,0,6.29,1.49,6.29,2.27,0,1.23-.33,2.59-.71,4.21-.78,2.98-.84,3.3-1.49,3.3-.9,0-.64-.39-.9-2.66-.45-3.82-1.62-5.57-4.15-5.57s-4.41,2.2-4.41,4.79c0,5.31,7.39,9.2,7.39,15.41,0,5.44-4.6,9.33-9.65,9.33-3.11,0-6.54-1.94-6.54-2.98s.39-3.37,1.03-6.28c.46-2.14.52-2.53,1.17-2.53.58,0,.64.39.64,2.33,0,4.15,1.3,7.9,5.31,7.9,2.52,0,4.53-2.66,4.53-5.12,0-6.35-6.99-8.74-6.99-14.96Z"/>
    <path class="cls-3" d="m1184.02,667.98c5.05,0,8.03,4.4,8.03,11.4,0,9.2-6.6,19.95-14.44,19.95-5.05,0-8.03-4.34-8.03-11.33,0-9.26,6.6-20.02,14.44-20.02Zm-6.41,29.79c5.25,0,10.95-12.69,10.95-20.73,0-5.18-1.68-7.51-4.53-7.51-5.25,0-10.95,12.76-10.95,20.79,0,5.18,1.68,7.45,4.53,7.45Z"/>
    <path class="cls-3" d="m1202.72,698.29l3.88-11.21c2.66-7.71,4.21-12.76,4.21-14.25,0-.84-.25-1.36-1.04-1.36-1.03,0-2.46,1.36-4.46,4.21-2.08,2.91-1.82,3.3-2.47,3.3-.33,0-.45-.13-.45-.45,0-1.23,5.7-10.56,9.91-10.56,1.88,0,2.66,1.3,2.66,3.05,0,3.3-2.39,8.87-2.98,11.79l.14.13c2.27-4.53,9.46-14.96,15.54-14.96,2,0,3.37,1.36,3.37,3.56,0,2.59-.78,3.95-4.47,13.47-2.92,7.58-3.04,8.36-3.04,9.26,0,.71.33,1.04.78,1.04.98,0,2.14-.91,3.88-3.17,2.79-3.56,2.66-4.73,3.24-4.73.33,0,.45.26.45.58,0,1.42-5.96,10.82-9.84,10.82-2,0-2.66-1.43-2.66-3.05,0-2.01.98-5.5,2.53-9.39,3.88-9.72,4.99-12.18,4.99-14.12,0-1.23-.59-1.82-1.43-1.82-2.92,0-8.16,5.51-13.15,14.45-1.82,3.24-4.72,9.91-5.37,11.98-.39,1.23-.45,1.42-1.17,1.42h-3.04Z"/>
    <path class="cls-3" d="m1262.81,688.32c-1.24,3.76-1.36,4.73-1.36,5.44s.33.91.71.91c.59,0,1.82-1.23,4.02-4.6,1.62-2.46,1.35-3.17,2-3.17.33,0,.45.19.45.52,0,1.82-5.89,11.66-10.11,11.66-1.49,0-1.74-1.04-1.74-2.33,0-2.33,1.23-5.44,3.82-13.15l-.13-.13c-2.34,3.56-10.11,15.61-15.23,15.61-2.98,0-4.02-2.33-4.02-5.76,0-11.33,11.79-24.68,19.56-24.68,1.63,0,2.92.58,4.28,1.56l.64-1.56c.2-.52.33-.65,1.1-.65h1.88c.39,0,.65.07.65.45,0,.19-.13.65-.26.97l-6.28,18.91Zm-15.42,7.25c4.8,0,16.52-18.33,16.52-22.73,0-2.01-1.16-3.04-2.98-3.04-6.55,0-15.55,16.06-15.55,22.93,0,1.68.59,2.85,2.01,2.85Z"/>
    <path class="cls-3" d="m1288.63,657.75c0-.84-.25-1.43-1.74-1.56-1.24-.13-1.49-.32-1.49-.84.06-.45.84-.71,1.94-.71,4.41,0,6.29-2.2,6.8-2.2.33,0,.45.13.45.52,0,.32-.65,1.68-1.23,3.76-9.59,34-10.17,34.98-10.17,36.72,0,.97.26,1.49.84,1.49.91,0,1.69-.71,3.76-4.01,1.82-2.91,2.08-4.53,2.66-4.53.33,0,.45.26.45.58,0,1.04-4.99,11.85-9.58,11.85-1.82,0-2.27-1.43-2.27-3.31,0-5.38,9.58-34.72,9.58-37.76Z"/>
    <path class="cls-3" d="m1310.76,657.75c0-.84-.25-1.43-1.74-1.56-1.24-.13-1.49-.32-1.49-.84.06-.45.84-.71,1.94-.71,4.41,0,6.29-2.2,6.8-2.2.33,0,.45.13.45.52,0,.32-.65,1.68-1.23,3.76-9.59,34-10.17,34.98-10.17,36.72,0,.97.26,1.49.84,1.49.91,0,1.69-.71,3.76-4.01,1.82-2.91,2.08-4.53,2.66-4.53.33,0,.45.26.45.58,0,1.04-4.99,11.85-9.58,11.85-1.82,0-2.27-1.43-2.27-3.31,0-5.38,9.58-34.72,9.58-37.76Z"/>
    <path class="cls-3" d="m1334.91,695.64c1.94-2.85,9.84-13.08,9.84-19.24,0-1.49-1.29-3.63-1.29-5.31s.84-2.85,2.07-2.85c1.69,0,2.2,1.56,2.2,4.02,0,5.57-3.62,13.21-15.74,29.21-1.68,2.27-3.11,4.15-4.34,5.57-3.43,4.01-5.57,5.12-7.97,5.12s-3.43-1.88-3.43-4.15c0-1.23.84-2.59,2.13-2.59,1.17,0,1.63.71,2.01,3.04.13.91.84,1.23,1.49,1.23,1.81,0,3.62-2.07,4.66-3.17,2.07-2.2,4.02-6.35,4.53-10.04.33-2.46.45-5.7.45-10.56,0-13.21-.64-14.57-2.07-14.57-1.04,0-1.82,1.17-3.04,3.43-1.36,2.4-1.43,4.02-2.27,4.02-.39,0-.59-.19-.59-.78,0-.78,3.76-9.78,7.39-9.78,2.84,0,4.08,2.98,4.08,11.14,0,7.13-.07,10.95-.33,16.13l.19.13Z"/>
  </g>
  <g>
    <path class="cls-2" d="m351.89,598.12h8.27c3.42,0,5.31.83,6.79,2.22,1.66,1.57,2.4,3.79,2.4,6.15,0,3.42-1.62,6.7-6.38,7.72v.09c1.94.37,2.87,1.29,3.51,3.14l4.53,12.94h-4.39l-3.7-10.91c-.92-2.68-2.08-3.7-5.13-3.7h-1.85v14.6h-4.07v-32.26Zm4.07,14.33h3.14c4.34,0,6.01-2.86,6.01-5.69,0-3.6-2.36-5.31-5.92-5.31h-3.24v11Z"/>
    <path class="cls-2" d="m381.29,598.12h15.02v3.51h-10.95v10.26h10.44v3.51h-10.44v11.46h11.56v3.51h-15.62v-32.26Z"/>
    <path class="cls-2" d="m421.42,602.79c-1.52-.92-3.51-1.48-5.5-1.48-3.05,0-5.04,2.08-5.04,4.81,0,2.08.83,3.37,5.45,6.05,4.99,2.87,6.65,5.69,6.65,9.38,0,5.13-3.19,9.15-9.38,9.15-2.59,0-5.04-.55-6.75-1.39v-4.2c1.85,1.11,4.25,2.08,6.15,2.08,3.65,0,5.73-2.45,5.73-5.08,0-2.5-.65-3.93-4.99-6.56-5.82-3.51-7.12-5.5-7.12-9.66,0-5.31,4.07-8.09,8.97-8.09,2.13,0,4.39.46,5.82,1.06v3.93Z"/>
    <path class="cls-2" d="m434.05,598.12h15.02v3.51h-10.95v10.26h10.44v3.51h-10.44v11.46h11.56v3.51h-15.62v-32.26Z"/>
    <path class="cls-2" d="m472.93,598.12l10.54,32.26h-4.25l-2.59-8.41h-12.29l-2.59,8.41h-4.07l10.81-32.26h4.44Zm2.63,20.33l-4.94-16.08h-.09l-5.08,16.08h10.12Z"/>
    <path class="cls-2" d="m492.82,598.12h8.27c3.42,0,5.31.83,6.79,2.22,1.66,1.57,2.4,3.79,2.4,6.15,0,3.42-1.62,6.7-6.38,7.72v.09c1.94.37,2.87,1.29,3.51,3.14l4.53,12.94h-4.39l-3.7-10.91c-.92-2.68-2.08-3.7-5.13-3.7h-1.85v14.6h-4.07v-32.26Zm4.07,14.33h3.14c4.34,0,6.01-2.86,6.01-5.69,0-3.6-2.36-5.31-5.92-5.31h-3.24v11Z"/>
    <path class="cls-2" d="m541.27,629.73c-1.94.6-3.97.97-5.87.97-10.21,0-14.51-7.76-14.51-16.5,0-10.07,5.87-16.4,14.28-16.4,2.31,0,4.62.42,6.1,1.15v3.98c-1.76-1.11-3.79-1.62-6.05-1.62-5.27,0-10.07,4.21-10.07,12.06,0,8.32,3.33,13.82,10.35,13.82,2.08,0,4.11-.56,5.78-1.53v4.07Z"/>
    <path class="cls-2" d="m552.47,598.12h4.07v13.77h11.28v-13.77h4.07v32.26h-4.07v-14.97h-11.28v14.97h-4.07v-32.26Z"/>
    <path class="cls-2" d="m600.93,598.12h4.07v32.26h-4.07v-32.26Z"/>
    <path class="cls-2" d="m617.53,598.12h5.04l12.15,26.62h.09v-26.62h3.88v32.26h-5.04l-12.16-26.43h-.09v26.43h-3.88v-32.26Z"/>
    <path class="cls-2" d="m664.55,602.79c-1.52-.92-3.51-1.48-5.5-1.48-3.05,0-5.04,2.08-5.04,4.81,0,2.08.83,3.37,5.45,6.05,4.99,2.87,6.65,5.69,6.65,9.38,0,5.13-3.19,9.15-9.38,9.15-2.59,0-5.04-.55-6.75-1.39v-4.2c1.85,1.11,4.25,2.08,6.15,2.08,3.65,0,5.73-2.45,5.73-5.08,0-2.5-.65-3.93-4.99-6.56-5.82-3.51-7.12-5.5-7.12-9.66,0-5.31,4.07-8.09,8.97-8.09,2.13,0,4.39.46,5.82,1.06v3.93Z"/>
    <path class="cls-2" d="m681.84,601.63h-7.39v-3.51h18.86v3.51h-7.39v28.75h-4.07v-28.75Z"/>
    <path class="cls-2" d="m703.12,598.12h4.07v32.26h-4.07v-32.26Z"/>
    <path class="cls-2" d="m724.38,601.63h-7.39v-3.51h18.86v3.51h-7.39v28.75h-4.07v-28.75Z"/>
    <path class="cls-2" d="m765.9,618.5c0,3.19-.18,4.94-1.29,7.21-1.34,2.68-4.16,4.99-8.83,4.99s-7.49-2.31-8.83-4.99c-1.11-2.26-1.29-4.02-1.29-7.21v-20.38h4.07v20.98c0,5.04,2.22,8.27,6.06,8.27s6.05-3.24,6.05-8.27v-20.98h4.07v20.38Z"/>
    <path class="cls-2" d="m783.11,601.63h-7.39v-3.51h18.86v3.51h-7.39v28.75h-4.07v-28.75Z"/>
    <path class="cls-2" d="m804.38,598.12h15.02v3.51h-10.95v10.26h10.44v3.51h-10.44v11.46h11.56v3.51h-15.62v-32.26Z"/>
    <path class="cls-2" d="m847.71,598.12h14.42v3.51h-10.35v10.26h9.84v3.51h-9.84v14.97h-4.06v-32.26Z"/>
    <path class="cls-2" d="m883.58,597.8c7.17,0,11.74,6.15,11.74,16.13,0,11.14-4.48,16.78-12.11,16.78-7.17,0-11.74-6.15-11.74-16.13,0-11.14,4.48-16.78,12.11-16.78Zm-.37,29.58c4.25,0,7.85-3.51,7.85-13.45,0-6.52-2.03-12.8-7.49-12.8-4.25,0-7.85,3.51-7.85,13.45,0,6.52,2.03,12.8,7.49,12.8Z"/>
    <path class="cls-2" d="m906.52,598.12h8.27c3.42,0,5.31.83,6.8,2.22,1.66,1.57,2.4,3.79,2.4,6.15,0,3.42-1.62,6.7-6.38,7.72v.09c1.94.37,2.86,1.29,3.51,3.14l4.53,12.94h-4.39l-3.7-10.91c-.93-2.68-2.08-3.7-5.13-3.7h-1.85v14.6h-4.07v-32.26Zm4.07,14.33h3.14c4.34,0,6.01-2.86,6.01-5.69,0-3.6-2.36-5.31-5.92-5.31h-3.23v11Z"/>
    <path class="cls-2" d="m952.44,598.12h8.27c3.42,0,5.31.83,6.79,2.22,1.66,1.57,2.4,3.79,2.4,6.15,0,3.42-1.62,6.7-6.38,7.72v.09c1.94.37,2.86,1.29,3.51,3.14l4.52,12.94h-4.39l-3.69-10.91c-.93-2.68-2.08-3.7-5.13-3.7h-1.85v14.6h-4.06v-32.26Zm4.06,14.33h3.14c4.34,0,6.01-2.86,6.01-5.69,0-3.6-2.36-5.31-5.92-5.31h-3.23v11Z"/>
    <path class="cls-2" d="m981.85,598.12h15.02v3.51h-10.96v10.26h10.45v3.51h-10.45v11.46h11.56v3.51h-15.62v-32.26Z"/>
    <path class="cls-2" d="m1008.66,598.12h4.07v28.74h10.58v3.51h-14.65v-32.26Z"/>
    <path class="cls-2" d="m1032.89,598.12h4.07v32.26h-4.07v-32.26Z"/>
    <path class="cls-2" d="m1061.56,598.12l10.53,32.26h-4.25l-2.59-8.41h-12.29l-2.59,8.41h-4.07l10.82-32.26h4.44Zm2.63,20.33l-4.94-16.08h-.09l-5.08,16.08h10.12Z"/>
    <path class="cls-2" d="m1081.44,598.12h8.18c6.24,0,8.96,3.42,8.96,8.18,0,3.51-2.08,6.24-5.31,7.16v.09c3.51.51,6.01,3.47,6.01,7.99s-3.05,8.83-10.07,8.83h-7.77v-32.26Zm4.06,13.96h2.41c4.53,0,6.61-2.08,6.61-5.55,0-2.77-1.66-5.08-5.92-5.08h-3.1v10.63Zm0,14.97h3.47c4.34,0,6.24-2.72,6.24-5.78,0-3.33-1.85-5.87-5.78-5.87h-3.93v11.65Z"/>
    <path class="cls-2" d="m1110.85,598.12h4.07v28.74h10.58v3.51h-14.65v-32.26Z"/>
    <path class="cls-2" d="m1135.08,598.12h15.02v3.51h-10.95v10.26h10.44v3.51h-10.44v11.46h11.56v3.51h-15.62v-32.26Z"/>
    <path class="cls-2" d="m1178.41,598.12h8.27c3.42,0,5.31.83,6.79,2.22,1.67,1.57,2.41,3.79,2.41,6.15,0,3.42-1.62,6.7-6.38,7.72v.09c1.94.37,2.87,1.29,3.51,3.14l4.53,12.94h-4.39l-3.7-10.91c-.93-2.68-2.08-3.7-5.13-3.7h-1.85v14.6h-4.07v-32.26Zm4.07,14.33h3.14c4.34,0,6.01-2.86,6.01-5.69,0-3.6-2.36-5.31-5.92-5.31h-3.23v11Z"/>
    <path class="cls-2" d="m1207.82,598.12h15.02v3.51h-10.95v10.26h10.44v3.51h-10.44v11.46h11.55v3.51h-15.62v-32.26Z"/>
    <path class="cls-2" d="m1247.95,602.79c-1.53-.92-3.51-1.48-5.5-1.48-3.05,0-5.04,2.08-5.04,4.81,0,2.08.83,3.37,5.45,6.05,4.99,2.87,6.66,5.69,6.66,9.38,0,5.13-3.19,9.15-9.38,9.15-2.59,0-5.04-.55-6.75-1.39v-4.2c1.85,1.11,4.25,2.08,6.15,2.08,3.65,0,5.73-2.45,5.73-5.08,0-2.5-.65-3.93-4.99-6.56-5.83-3.51-7.12-5.5-7.12-9.66,0-5.31,4.06-8.09,8.96-8.09,2.13,0,4.39.46,5.83,1.06v3.93Z"/>
    <path class="cls-2" d="m1280.82,618.5c0,3.19-.19,4.94-1.3,7.21-1.34,2.68-4.16,4.99-8.83,4.99s-7.49-2.31-8.82-4.99c-1.11-2.26-1.3-4.02-1.3-7.21v-20.38h4.07v20.98c0,5.04,2.22,8.27,6.05,8.27s6.06-3.24,6.06-8.27v-20.98h4.07v20.38Z"/>
    <path class="cls-2" d="m1293.36,598.12h4.07v28.74h10.58v3.51h-14.65v-32.26Z"/>
    <path class="cls-2" d="m1318.83,601.63h-7.4v-3.51h18.86v3.51h-7.4v28.75h-4.06v-28.75Z"/>
    <path class="cls-2" d="m1353.42,602.79c-1.53-.92-3.51-1.48-5.5-1.48-3.05,0-5.04,2.08-5.04,4.81,0,2.08.83,3.37,5.45,6.05,4.99,2.87,6.66,5.69,6.66,9.38,0,5.13-3.19,9.15-9.38,9.15-2.59,0-5.04-.55-6.75-1.39v-4.2c1.85,1.11,4.25,2.08,6.15,2.08,3.65,0,5.73-2.45,5.73-5.08,0-2.5-.65-3.93-4.99-6.56-5.83-3.51-7.12-5.5-7.12-9.66,0-5.31,4.06-8.09,8.96-8.09,2.13,0,4.39.46,5.83,1.06v3.93Z"/>
  </g>
</svg>